<svg xmlns="http://www.w3.org/2000/svg" version="1.1" xmlns:xlink="http://www.w3.org/1999/xlink" xmlns:svgjs="http://svgjs.dev/svgjs" width="1440" height="560" preserveAspectRatio="none" viewBox="0 0 1440 560"><g mask="url(&quot;#SvgjsMask1201&quot;)" fill="none"><rect width="1440" height="560" x="0" y="0" fill="rgba(162, 0, 255, 1)"></rect><path d="M0,414.239C77.629,425.04,164.068,395.833,217.589,338.575C268.999,283.576,251.256,196.478,271.365,123.928C287.596,65.37,320.199,13.987,324.36,-46.636C329.32,-118.9,335.175,-195.938,297.569,-257.845C257.602,-323.638,189.619,-372.774,114.927,-391.406C41.441,-409.737,-34.527,-385.521,-105.212,-358.321C-171.49,-332.817,-243.812,-302.957,-277.455,-240.416C-309.796,-180.296,-266.236,-107.245,-276.576,-39.766C-287.067,28.695,-357.446,87.877,-337.946,154.335C-318.571,220.368,-236.422,241.046,-181.872,282.999C-121.385,329.518,-75.578,403.724,0,414.239" fill="#7800bd"></path><path d="M1440 960.6990000000001C1513.699 955.1089999999999 1564.728 889.9110000000001 1631.033 857.2529999999999 1708.439 819.127 1821.574 828.941 1862.132 752.781 1902.277 677.398 1853.068 583.617 1818.299 505.609 1789.68 441.398 1732.786 399.004 1682.537 349.84000000000003 1636.692 304.985 1597.489 251.06400000000002 1536.8319999999999 230.221 1474.826 208.914 1407.651 217.24599999999998 1344.149 233.562 1278.952 250.31400000000002 1213.5140000000001 274.69 1168.6019999999999 324.832 1123.343 375.361 1109.955 444.153 1096.0520000000001 510.548 1081.295 581.022 1061.454 654.03 1085.453 721.9159999999999 1110.351 792.345 1167.43 845.99 1229.388 887.7180000000001 1292.288 930.0799999999999 1364.382 966.435 1440 960.6990000000001" fill="#ba42ff"></path></g><defs><mask id="SvgjsMask1201"><rect width="1440" height="560" fill="#ffffff"></rect></mask></defs></svg>